<svg xmlns="http://www.w3.org/2000/svg" width="980" height="520" viewBox="0 0 980 520" font-family="Noto Sans CJK KR, Malgun Gothic, sans-serif">
<rect width="980" height="520" fill="#fff"/>
<text x="70" y="28" font-size="18" font-weight="700" fill="#0e1116">질의별 조회 시간 (중앙값, 로그 축)</text>
<text x="70" y="48" font-size="12" fill="#5b6572">합성 데이터 3,000만 건 · 5회 측정 중앙값 · 낮을수록 빠름</text>
<line x1="70" x2="960" y1="410.0" y2="410.0" stroke="#d9dce1" stroke-dasharray="3 3"/>
<text x="62" y="414.0" font-size="11" text-anchor="end" fill="#5b6572">1 ms</text>
<line x1="70" x2="960" y1="322.5" y2="322.5" stroke="#d9dce1" stroke-dasharray="3 3"/>
<text x="62" y="326.5" font-size="11" text-anchor="end" fill="#5b6572">10 ms</text>
<line x1="70" x2="960" y1="235.0" y2="235.0" stroke="#d9dce1" stroke-dasharray="3 3"/>
<text x="62" y="239.0" font-size="11" text-anchor="end" fill="#5b6572">100 ms</text>
<line x1="70" x2="960" y1="147.5" y2="147.5" stroke="#d9dce1" stroke-dasharray="3 3"/>
<text x="62" y="151.5" font-size="11" text-anchor="end" fill="#5b6572">1,000 ms</text>
<line x1="70" x2="960" y1="60.0" y2="60.0" stroke="#d9dce1" stroke-dasharray="3 3"/>
<text x="62" y="64.0" font-size="11" text-anchor="end" fill="#5b6572">10,000 ms</text>
<rect x="87.6" y="125.5" width="31.9" height="284.5" fill="#9aa3ae"/>
<text x="103.6" y="121.5" font-size="10" text-anchor="middle" fill="#0e1116">1,783</text>
<rect x="123.1" y="194.5" width="31.9" height="215.5" fill="#5b6572"/>
<text x="139.1" y="190.5" font-size="10" text-anchor="middle" fill="#0e1116">290</text>
<rect x="158.6" y="158.6" width="31.9" height="251.4" fill="#e8a07f"/>
<text x="174.5" y="154.6" font-size="10" text-anchor="middle" fill="#0e1116">746</text>
<rect x="194.1" y="173.8" width="31.9" height="236.2" fill="#e8501f"/>
<text x="210.0" y="169.8" font-size="10" text-anchor="middle" fill="#0e1116">500</text>
<rect x="229.5" y="343.2" width="31.9" height="66.8" fill="#2e7d62"/>
<text x="245.5" y="339.2" font-size="10" text-anchor="middle" fill="#0e1116">6</text>
<text x="176.3" y="430" font-size="14" font-weight="700" text-anchor="middle" fill="#0e1116">Q1</text>
<text x="176.3" y="448" font-size="11" text-anchor="middle" fill="#5b6572">특정 지역의 최근 3개월 월별 통행량</text>
<rect x="307.6" y="112.3" width="31.9" height="297.7" fill="#9aa3ae"/>
<text x="323.6" y="108.3" font-size="10" text-anchor="middle" fill="#0e1116">2,525</text>
<rect x="343.1" y="114.0" width="31.9" height="296.0" fill="#5b6572"/>
<text x="359.1" y="110.0" font-size="10" text-anchor="middle" fill="#0e1116">2,414</text>
<rect x="378.6" y="82.3" width="31.9" height="327.7" fill="#e8a07f"/>
<text x="394.5" y="78.3" font-size="10" text-anchor="middle" fill="#0e1116">5,559</text>
<rect x="414.1" y="111.4" width="31.9" height="298.6" fill="#e8501f"/>
<text x="430.0" y="107.4" font-size="10" text-anchor="middle" fill="#0e1116">2,584</text>
<rect x="449.5" y="318.2" width="31.9" height="91.8" fill="#2e7d62"/>
<text x="465.5" y="314.2" font-size="10" text-anchor="middle" fill="#0e1116">11</text>
<text x="396.3" y="430" font-size="14" font-weight="700" text-anchor="middle" fill="#0e1116">Q2</text>
<text x="396.3" y="448" font-size="11" text-anchor="middle" fill="#5b6572">전 지역 2024-11월 일별 평균 속도</text>
<rect x="527.6" y="126.1" width="31.9" height="283.9" fill="#9aa3ae"/>
<text x="543.6" y="122.1" font-size="10" text-anchor="middle" fill="#0e1116">1,757</text>
<rect x="563.1" y="158.8" width="31.9" height="251.2" fill="#5b6572"/>
<text x="579.1" y="154.8" font-size="10" text-anchor="middle" fill="#0e1116">744</text>
<rect x="598.6" y="252.9" width="31.9" height="157.1" fill="#e8a07f"/>
<text x="614.5" y="248.9" font-size="10" text-anchor="middle" fill="#0e1116">62</text>
<rect x="634.1" y="263.4" width="31.9" height="146.6" fill="#e8501f"/>
<text x="650.0" y="259.4" font-size="10" text-anchor="middle" fill="#0e1116">47</text>
<text x="616.3" y="430" font-size="14" font-weight="700" text-anchor="middle" fill="#0e1116">Q3</text>
<text x="616.3" y="448" font-size="11" text-anchor="middle" fill="#5b6572">특정 도로의 2024년 시간대별 평균 속도</text>
<rect x="747.6" y="106.4" width="31.9" height="303.6" fill="#9aa3ae"/>
<text x="763.6" y="102.4" font-size="10" text-anchor="middle" fill="#0e1116">2,947</text>
<rect x="783.1" y="74.8" width="31.9" height="335.2" fill="#5b6572"/>
<text x="799.1" y="70.8" font-size="10" text-anchor="middle" fill="#0e1116">6,774</text>
<rect x="818.6" y="87.7" width="31.9" height="322.3" fill="#e8a07f"/>
<text x="834.5" y="83.7" font-size="10" text-anchor="middle" fill="#0e1116">4,824</text>
<rect x="854.1" y="93.5" width="31.9" height="316.5" fill="#e8501f"/>
<text x="870.0" y="89.5" font-size="10" text-anchor="middle" fill="#0e1116">4,139</text>
<rect x="889.5" y="315.9" width="31.9" height="94.1" fill="#2e7d62"/>
<text x="905.5" y="311.9" font-size="10" text-anchor="middle" fill="#0e1116">12</text>
<text x="836.3" y="430" font-size="14" font-weight="700" text-anchor="middle" fill="#0e1116">Q4</text>
<text x="836.3" y="448" font-size="11" text-anchor="middle" fill="#5b6572">2024년 지역별 연간 통행량 순위</text>
<rect x="70" y="486" width="12" height="12" fill="#9aa3ae"/>
<text x="88" y="496" font-size="12" fill="#0e1116">A 단일 테이블 · 인덱스 없음</text>
<rect x="250" y="486" width="12" height="12" fill="#5b6572"/>
<text x="268" y="496" font-size="12" fill="#0e1116">B 월 파티션 · 인덱스 없음</text>
<rect x="430" y="486" width="12" height="12" fill="#e8a07f"/>
<text x="448" y="496" font-size="12" fill="#0e1116">C 단일 테이블 · 인덱스</text>
<rect x="610" y="486" width="12" height="12" fill="#e8501f"/>
<text x="628" y="496" font-size="12" fill="#0e1116">D 월 파티션 · 인덱스</text>
<rect x="790" y="486" width="12" height="12" fill="#2e7d62"/>
<text x="808" y="496" font-size="12" fill="#0e1116">E 일 단위 집계 테이블</text>
</svg>